<?xml version="1.0" encoding="utf-8"?>
<!-- Generator: Adobe Illustrator 26.2.1, SVG Export Plug-In . SVG Version: 6.00 Build 0)  -->
<svg version="1.1" id="Glyph_gradient" xmlns="http://www.w3.org/2000/svg" xmlns:xlink="http://www.w3.org/1999/xlink" x="0px"
	 y="0px" viewBox="0 0 512 512" enable-background="new 0 0 512 512" xml:space="preserve">
<linearGradient id="SVGID_1_" gradientUnits="userSpaceOnUse" x1="94.1353" y1="417.8647" x2="417.8647" y2="94.1353">
	<stop  offset="0" style="stop-color:#5EBCE5"/>
	<stop  offset="0.5132" style="stop-color:#B678E6"/>
	<stop  offset="1" style="stop-color:#E25B61"/>
</linearGradient>
<path fill="url(#SVGID_1_)" d="M461.236,137.507c-5.329,20.21-24.231,78.653-69.85,104.991
	c-17.394,10.042-36.87,14.368-55.44,15.592c0.018-0.697,0.053-1.389,0.053-2.09c0-30.298-16.931-56.714-41.827-70.289
	c10.35-15.469,23.83-30.172,41.213-40.209C381.007,119.162,441.075,132.018,461.236,137.507z M256,320c-35.29,0-64-28.71-64-64
	s28.71-64,64-64s64,28.71,64,64S291.29,320,256,320z M374.493,50.764c3.144,11.549,8.693,36.183,7.923,63.694
	c-18.198,1.991-37.05,6.954-54.426,16.851c-0.116-19.993-5.242-38.796-12.614-55.549C338.817,61.335,362.924,53.814,374.493,50.764z
	 M256,19.014c14.838,14.72,56,60.311,56,112.986c0,3.581-0.199,7.125-0.562,10.63c-13.233,10.696-23.894,23.587-32.424,36.76
	C271.721,177.194,263.999,176,256,176c-8.01,0-15.743,1.197-23.044,3.398c-8.518-13.172-19.167-26.055-32.394-36.754
	C200.201,139.133,200,135.584,200,132C200,79.321,241.167,33.728,256,19.014z M137.507,50.764
	c11.573,3.052,35.683,10.56,59.123,24.982c-7.375,16.756-12.504,35.565-12.62,55.563c-17.374-9.896-36.223-14.859-54.418-16.851
	C128.82,86.945,134.364,62.308,137.507,50.764z M176.613,145.502c17.397,10.044,30.868,24.746,41.207,40.212
	c-19.698,10.743-34.386,29.533-39.667,51.916c-15.678,0.8-32.177,3.58-48.062,9.695c-3.214-1.44-6.38-3.04-9.478-4.828
	c-45.622-26.339-64.523-84.788-69.85-104.991C70.93,132.017,130.994,119.165,176.613,145.502z M19.014,256
	c8.429-8.497,26.987-25.623,51.196-38.712C81.034,232.054,94.758,245.9,112.02,256c-17.262,10.1-30.986,23.947-41.81,38.712
	C45.997,281.623,27.441,264.495,19.014,256z M50.764,374.493c5.329-20.21,24.231-78.653,69.85-104.991
	c17.386-10.038,36.867-14.374,55.44-15.604c-0.018,0.7-0.053,1.396-0.053,2.101c0,22.913,9.697,43.591,25.186,58.19
	c-7.153,13.982-12.988,29.673-15.638,46.497c-2.857,2.07-5.829,4.019-8.934,5.811C130.991,392.837,70.924,379.982,50.764,374.493z
	 M137.507,461.236c-3.145-11.55-8.697-36.19-7.925-63.706c18.2-1.991,37.052-6.947,54.428-16.845
	c0.115,19.999,5.244,38.809,12.619,55.566C173.187,450.675,149.077,458.186,137.507,461.236z M256,492.986
	c-14.838-14.72-56-60.311-56-112.986c0-20.077,5.988-39.115,14.21-55.815C226.381,331.672,240.693,336,256,336
	c7.999,0,15.722-1.194,23.015-3.39c8.529,13.172,19.188,26.061,32.419,36.757C311.801,372.873,312,376.418,312,380
	C312,432.679,270.833,478.272,256,492.986z M374.493,461.236c-11.573-3.052-35.68-10.568-59.119-24.99
	c7.374-16.756,12.501-35.563,12.616-55.561c17.38,9.9,36.23,14.856,54.43,16.846C383.192,425.049,377.637,449.69,374.493,461.236z
	 M335.387,366.498c-17.384-10.037-30.869-24.738-41.218-40.206c19.701-10.741,34.393-29.531,39.677-51.915
	c15.671-0.8,32.164-3.601,48.043-9.711c3.221,1.443,6.394,3.045,9.498,4.837c45.622,26.339,64.523,84.788,69.85,104.991
	C441.07,379.984,381.006,392.835,335.387,366.498z M441.79,294.711C430.966,279.946,417.241,266.1,399.98,256
	c17.261-10.1,30.986-23.946,41.81-38.711c24.211,13.09,42.77,30.217,51.196,38.711C484.557,264.497,466,281.622,441.79,294.711z"/>
</svg>
